<svg width="248" height="248" viewBox="0 0 248 248" fill="none" xmlns="http://www.w3.org/2000/svg">
<g clip-path="url(#clip0)">
<path d="M81.6516 103.971L88.3628 160.757L6.7983 166.435L0.0871216 110.166C-0.429272 107.585 1.63582 105.003 4.21682 105.003L76.4892 99.841C79.0706 99.3251 81.1357 101.39 81.6516 103.971Z" fill="#415A6B"/>
<path d="M10.928 161.273L5.24963 110.166L76.4897 104.488L82.6844 155.595L10.928 161.273Z" fill="#8AD7F8"/>
<path d="M64.6159 141.14C64.0995 136.494 67.1969 132.364 71.843 131.848C76.4891 131.331 80.6188 134.945 81.1352 139.591C81.6516 144.237 78.5542 148.367 73.9081 148.883C69.262 149.4 65.1323 146.302 64.6159 141.14Z" fill="#E8EAE9"/>
<path d="M45.5157 154.046L63.0672 146.302L80.6193 140.108L82.6844 155.595L10.928 161.273L9.37927 145.27L31.5774 149.4L45.5157 154.046Z" fill="#E8EAE9"/>
<path d="M55.8401 144.754C55.3237 141.14 57.9052 138.043 61.5185 137.527C65.1323 137.01 68.2297 140.108 68.7456 143.721C69.262 147.335 66.6805 150.433 63.0672 150.948C59.4539 150.948 56.3565 148.367 55.8401 144.754Z" fill="#E8EAE9"/>
<path d="M51.1941 148.883C50.6777 146.302 52.7428 143.721 55.3238 143.721C57.9048 143.721 60.4862 145.786 60.4862 148.367C61.0026 150.948 58.9375 153.53 56.3565 153.53C53.7751 153.53 51.7104 151.464 51.1941 148.883Z" fill="#E8EAE9"/>
<path d="M47.5803 153.53C47.0639 150.949 49.129 148.883 51.1941 148.883C53.775 148.883 55.8401 150.432 55.8401 153.013C55.8401 155.594 54.2914 157.659 52.2264 157.659C50.1618 158.176 48.0967 156.111 47.5803 153.53Z" fill="#E8EAE9"/>
<path d="M70.8107 148.883C70.8107 148.883 70.8107 148.883 70.2943 148.883C70.2943 148.883 70.2943 148.883 69.7779 148.883C69.7779 148.883 69.7779 148.883 69.2615 148.883C69.2615 148.883 69.2615 148.883 68.7451 148.883H68.2287H67.7123C67.7123 148.883 67.1959 148.883 67.1959 148.367C66.6795 148.367 66.6795 147.851 66.1636 147.851C65.6472 147.334 65.6472 147.334 65.1313 146.818C64.6149 146.302 64.6149 146.302 64.6149 145.786C64.6149 145.27 64.0985 144.754 64.0985 144.754C64.0985 144.237 64.0985 143.721 63.5822 143.721C63.5822 143.205 63.5822 142.689 63.5822 142.689V142.173V141.656V141.14V140.624C63.5822 140.624 63.5822 140.624 63.5822 140.107C63.5822 140.107 63.5822 140.107 63.5822 139.591C63.5822 139.074 63.5822 139.074 63.5822 139.074C63.5822 139.074 63.5822 139.074 63.5822 139.591C63.5822 139.591 63.5822 139.591 63.5822 140.107C63.5822 140.107 63.5822 140.107 63.5822 140.624C63.5822 140.624 63.5822 141.14 63.5822 141.656V142.172V142.689V143.205V143.721C63.5822 144.238 63.5822 144.238 64.0985 144.754C64.0985 145.27 64.6149 145.27 64.6149 145.786C64.6149 146.302 65.1313 146.302 65.1313 146.818C65.1313 147.335 65.6477 147.335 65.6477 147.851L66.1641 148.367C66.1641 148.367 66.1641 148.367 66.6805 148.883C66.6805 148.883 66.6805 148.883 67.1969 149.4C67.1969 149.4 67.1969 149.4 67.7133 149.916L68.2297 150.433C68.2297 150.433 68.2297 150.433 68.7461 150.433C69.7784 148.367 69.7784 148.367 70.8107 148.883C70.2948 148.883 70.8107 148.883 70.8107 148.883Z" fill="#CED6E0"/>
<path d="M62.0349 150.432C62.0349 150.432 61.5185 150.432 62.0349 150.432C61.5185 150.432 61.5185 150.432 61.5185 150.432C61.5185 150.432 61.5185 150.432 61.0021 150.432H60.4857C60.4857 150.432 60.4857 150.432 59.9693 150.432C59.9693 150.432 59.9693 150.432 59.4529 150.432C58.9365 150.432 58.9365 149.916 58.4206 149.916C57.9047 149.916 57.9042 149.399 57.3883 149.399C56.8724 149.399 56.8719 148.883 56.8719 148.883C56.8719 148.367 56.3555 148.367 56.3555 147.851C56.3555 147.334 55.8391 147.334 55.8391 146.818C55.8391 146.302 55.8391 146.302 55.3228 145.786V145.27V144.753V144.237C55.3228 144.237 55.3228 144.237 55.3228 143.721C55.3228 143.204 55.3228 143.204 55.3228 143.204C55.3228 143.204 55.3228 143.204 55.3228 143.721C55.3228 143.721 55.3228 143.72 55.3228 144.237V144.753C55.3228 144.753 55.3228 144.753 55.3228 145.27C55.3228 145.27 55.3228 145.27 55.3228 145.786C55.3228 145.786 55.3228 146.302 55.8391 146.302L56.3555 146.819L56.8719 147.335L57.3883 147.852L57.9047 148.368L58.4211 148.884C58.4211 148.884 58.4211 148.884 58.9375 148.884C58.9375 148.884 58.9375 148.884 59.4539 148.884C59.4539 148.884 59.9703 148.884 59.9703 149.401C61.5185 150.432 61.5185 150.432 62.0349 150.432C61.5185 150.432 62.0349 150.432 62.0349 150.432Z" fill="#CED6E0"/>
<path d="M25.3826 144.237C24.8662 139.591 20.7366 135.978 16.0905 136.494C11.4444 137.01 8.34698 141.14 8.86337 145.786C9.37976 150.432 13.5095 154.046 18.1556 153.53C22.8012 153.013 25.8985 148.883 25.3826 144.237Z" fill="#E8EAE9"/>
<path d="M34.6748 146.302C34.1584 142.689 31.061 139.591 27.4477 140.108C23.8339 140.108 21.7693 143.721 21.7693 147.335C22.2857 150.949 25.3831 153.53 28.9964 153.53C32.6097 153.013 34.6748 149.916 34.6748 146.302Z" fill="#E8EAE9"/>
<path d="M39.8368 149.916C39.3204 147.335 37.2558 145.27 34.6744 145.27C32.0929 145.27 30.0283 147.851 30.5447 150.432C31.061 153.013 33.1257 155.078 35.7071 155.078C38.2886 155.078 40.3532 152.497 39.8368 149.916Z" fill="#E8EAE9"/>
<path d="M44.9994 154.046C44.483 151.465 42.4184 149.4 40.3533 149.916C38.2882 150.433 35.7072 151.981 36.2236 154.562C36.74 157.143 38.8046 159.208 40.8697 158.692C43.4507 158.692 44.9994 156.627 44.9994 154.046Z" fill="#E8EAE9"/>
<path d="M21.2524 152.497C21.7688 151.981 21.7688 151.981 21.7688 151.981L22.2852 151.464C22.2852 151.464 22.2852 151.464 22.8016 150.948C22.8016 150.948 22.8016 150.948 23.318 150.432C23.318 150.432 23.318 149.915 23.8344 149.915C23.8344 149.915 23.8344 149.399 24.3508 149.399C24.3508 148.882 24.8672 148.882 24.8672 148.367C24.8672 147.85 25.3836 147.85 25.3836 147.334C25.3836 146.818 25.3836 146.818 25.3836 146.302C25.3836 145.786 25.3836 145.786 25.3836 145.27V144.753V144.237V143.72V143.204C25.3836 142.688 25.3836 142.688 25.3836 142.172C25.3836 142.172 25.3836 142.172 25.3836 141.655C25.3836 141.655 25.3836 141.655 25.3836 141.139C25.3836 140.623 25.3836 140.623 25.3836 140.623C25.3836 140.623 25.3836 140.623 25.9 141.139C25.9 141.139 25.9 141.139 25.9 141.655C25.9 141.655 25.9 141.655 25.9 142.172C25.9 142.172 25.9 142.172 25.9 142.688V143.205V143.721V144.237C25.9 144.754 25.9 144.754 25.9 145.27C25.9 145.786 25.9 146.302 25.9 146.302C25.9 146.818 25.9 147.334 25.9 147.334C25.9 147.851 25.3836 148.367 25.3836 148.367C25.3836 148.883 24.8672 148.883 24.8672 149.399C24.8672 149.915 24.3508 149.915 24.3508 150.431C24.3508 150.431 24.3508 150.431 23.8344 150.948C23.8344 150.948 23.318 150.948 23.318 151.464C23.318 151.464 23.318 151.464 22.8016 151.464C22.8016 151.464 22.8016 151.464 22.2852 151.464C22.2852 151.464 22.2852 151.464 21.7688 151.464C21.7688 151.464 21.7688 151.464 21.2524 151.464C21.2524 152.497 21.2524 152.497 21.2524 152.497Z" fill="#CED6E0"/>
<path d="M30.0287 153.013C30.5451 153.013 30.5451 152.497 30.5451 152.497C30.5451 152.497 31.0615 152.497 31.0615 151.98C31.0615 151.98 31.0615 151.98 31.5779 151.98C31.5779 151.98 31.5779 151.98 32.0943 151.98L32.6107 151.464L33.127 150.947L33.6434 150.431C33.6434 149.915 33.6434 149.915 34.1598 149.399C34.1598 148.882 34.1598 148.882 34.6762 148.366C34.6762 147.85 34.6762 147.85 34.6762 147.334C34.6762 147.334 34.6762 147.334 34.6762 146.818C34.6762 146.818 34.6762 146.818 34.6762 146.301V145.785C34.6762 145.785 34.6762 145.785 34.6762 145.269C34.6762 144.752 34.6762 144.752 34.6762 144.752C34.6762 144.752 34.6762 144.752 34.6762 145.269C34.6762 145.269 34.6762 145.269 34.6762 145.785V146.301V146.818V147.334C34.6762 147.851 34.6762 147.851 34.6762 148.366C34.6762 148.883 34.6762 148.883 34.6762 149.399C34.6762 149.915 34.6762 149.915 34.1598 150.431C34.1598 150.947 33.6434 150.947 33.6434 151.463C33.6434 151.98 33.127 151.98 33.127 151.98L32.6107 152.496C32.6107 152.496 32.6107 152.496 32.0943 152.496C32.0943 152.496 32.0943 152.496 31.5779 152.496H31.061C31.061 152.496 31.061 152.496 30.5446 152.496C30.5446 153.013 30.5446 153.013 30.0287 153.013Z" fill="#CED6E0"/>
<path d="M45.5157 112.231L37.2559 112.747L41.9019 154.046L50.6777 153.529L45.5157 112.231Z" fill="#E8EAE9"/>
<path d="M43.4506 112.747H39.3209L44.4829 154.046L48.0967 153.529L43.4506 112.747Z" fill="#CED6E0"/>
<path d="M27.9636 121.007C27.9636 121.523 27.9636 121.523 27.9636 122.039L28.48 122.556C29.5123 123.072 29.5123 124.621 29.5123 125.653C29.5123 126.169 28.9959 126.169 28.9959 126.685C28.9959 127.201 28.4795 127.718 28.4795 128.234C28.4795 128.75 28.4795 129.266 28.9959 129.783C28.4795 129.783 28.4795 129.783 27.9636 129.266C27.4477 128.75 27.4472 128.75 27.4472 128.234C27.4472 127.202 27.4472 126.169 27.4472 125.653C26.9308 126.169 26.9308 127.202 26.9308 128.234C26.9308 128.75 26.9308 129.266 26.9308 129.266C26.9308 129.783 27.4472 129.783 27.4472 130.299C27.9636 131.331 27.9636 132.364 27.4472 133.396C27.4472 133.912 26.9308 133.912 26.9308 134.428C26.9308 134.944 26.4144 134.945 26.4144 135.461C25.898 134.428 25.3821 133.395 25.3821 132.363C25.3821 131.331 25.3821 130.814 25.3821 129.782C25.3821 128.75 24.8657 128.233 24.3498 127.717C23.8334 127.201 23.8334 126.168 23.8334 125.652C23.317 126.684 23.317 128.233 24.3498 129.266C23.8334 129.266 22.8011 128.749 22.2847 128.233C22.2847 127.717 21.7683 127.717 21.7683 127.201C21.7683 126.169 21.2519 125.136 21.7683 124.104C21.7683 123.587 22.2847 123.071 22.8006 122.555C24.8657 121.523 25.3816 120.49 25.898 118.941C26.4144 119.458 26.9303 119.974 27.4467 120.49" fill="#FFD15C"/>
<path d="M60.4863 118.942C60.4863 119.458 60.4863 119.458 60.4863 119.974L61.0027 120.49C62.035 121.007 62.035 122.556 62.035 123.588C62.035 124.104 61.5186 124.104 61.5186 124.62C61.5186 125.136 61.0022 125.652 61.0022 126.169C61.0022 126.685 61.0022 127.201 61.5186 127.718C61.0022 127.718 61.0022 127.718 60.4863 127.201C60.4863 126.685 59.9699 126.685 59.9699 126.169C59.9699 125.137 59.9699 124.104 59.9699 123.588C59.4535 124.104 59.4535 125.137 59.4535 126.169C59.4535 126.685 59.4535 127.201 59.4535 127.201C59.4535 127.718 59.9699 127.718 59.9699 128.233C60.4863 129.266 60.4863 130.299 59.9699 131.331C59.9699 131.847 59.4535 131.847 59.4535 132.363C59.4535 132.879 58.9371 132.88 58.9371 133.395C58.4207 132.363 57.9048 131.33 57.9048 130.298C57.9048 129.266 57.9048 128.749 57.9048 127.717C57.9048 126.685 57.3884 126.168 56.8725 125.652C56.3561 125.136 56.3561 124.103 56.3561 123.587C55.8397 124.619 55.8397 126.168 56.8725 127.201C56.3561 127.201 55.3238 126.684 54.8074 126.168C54.8074 125.652 54.291 125.652 54.291 125.136C54.291 124.104 53.7746 123.071 54.291 122.039C54.291 121.522 54.8074 121.006 55.3233 120.49C56.3556 119.458 56.872 118.425 56.872 116.876C57.3884 117.393 57.9043 117.909 58.4207 118.425" fill="#FFD15C"/>
<path d="M36.7394 98.2928L24.8662 110.166L25.3826 116.361L38.8045 115.329L36.7394 98.2928Z" fill="#ADB3BA"/>
<path d="M21.2524 115.329L22.2847 122.556L30.0282 122.039L28.9959 114.812C28.4795 111.198 26.9308 107.585 23.8334 105.004C21.7688 107.585 20.7365 111.198 21.2524 115.329Z" fill="#E8EAE9"/>
<path d="M21.7689 119.975L22.2853 122.556L30.0288 122.039V119.458L21.7689 119.975Z" fill="#44C868"/>
<path d="M42.9342 97.7765L57.3889 107.585L57.9053 113.78L44.9993 114.812L42.9342 97.7765Z" fill="#ADB3BA"/>
<path d="M61.5185 112.231L62.5508 119.458L54.8073 119.975L53.775 112.748C53.2586 109.134 54.2914 105.52 56.356 102.423C59.4539 105.004 61.5185 108.617 61.5185 112.231Z" fill="#E8EAE9"/>
<path d="M62.5514 117.393V119.458L54.8079 119.975L54.2915 117.909L62.5514 117.393Z" fill="#44C868"/>
<path d="M29.5123 84.8705C29.5123 86.9356 29.5123 89.0002 29.5123 91.0653L32.6097 117.393L51.1941 115.844L48.0967 89.5166C48.0967 87.4515 47.5803 85.3869 47.0644 83.3218L29.5123 84.8705Z" fill="#E8EAE9"/>
<path d="M53.7751 119.458L51.1941 115.844L32.6097 117.393L31.061 121.007L53.7751 119.458Z" fill="#FF4A4A"/>
<path d="M29.5124 82.2894C29.5124 83.3217 29.5124 84.3545 28.996 85.9032L47.0639 84.3545C46.5475 83.3222 46.5475 82.2894 46.0316 80.7407L29.5124 82.2894Z" fill="#415A6B"/>
<path d="M46.548 81.7731C44.4829 76.0947 40.8696 70.4158 36.2235 66.2861C32.6097 70.9322 30.0287 76.6106 29.5123 82.8054L46.548 81.7731Z" fill="#FF4A4A"/>
<path d="M45.5157 94.679C46.0321 98.2928 43.4506 101.39 40.3532 101.39C37.2559 101.39 34.1585 98.8092 33.6421 95.7118C33.1257 92.6144 35.7072 89.0006 38.8045 89.0006C41.9019 88.4842 44.9993 91.0652 45.5157 94.679Z" fill="#415A6B"/>
<path d="M43.4506 94.679C43.967 97.26 41.9019 99.3251 39.8368 99.3251C37.2558 99.3251 35.1907 97.7764 35.1907 95.1954C34.6744 92.6144 36.7394 90.5493 38.8045 90.5493C41.3855 90.5493 43.4506 92.098 43.4506 94.679Z" fill="#44C868"/>
<path d="M48.613 154.046C48.613 155.595 47.5807 156.627 46.548 157.143C45.5157 157.66 43.967 156.111 43.4506 154.562C43.4506 153.014 44.4829 151.981 45.5156 151.465C47.5803 151.464 48.613 152.497 48.613 154.046Z" fill="#E8EAE9"/>
<path d="M94.5576 202.055L80.6193 202.572C80.6193 202.572 78.0383 196.893 76.4896 195.345C74.9409 193.796 76.4896 174.695 79.0706 172.631C83.2003 174.696 86.2977 177.277 88.3628 181.923L94.5576 202.055Z" fill="#344A5E"/>
<path d="M84.7491 177.792L73.3918 172.63L37.2554 174.178C37.2554 174.178 48.0962 177.276 53.2587 179.341C57.9048 181.406 66.1647 183.471 70.8108 186.052C74.9405 188.633 82.684 192.247 84.7491 192.763V177.792Z" fill="#FFE4C1"/>
<path d="M79.0707 193.279C79.0707 193.279 86.2978 181.406 77.522 174.178L95.5899 177.792L92.4926 198.958L79.0707 193.279Z" fill="#F3F3F3"/>
<path d="M78.5542 173.146C78.5542 173.146 85.2654 176.244 84.2326 190.182C83.2003 204.12 80.1029 203.088 80.1029 203.088C80.1029 203.088 80.1029 203.604 85.2654 204.12C90.9438 204.637 94.5576 205.152 98.6873 206.185C102.301 207.218 127.08 208.766 127.08 208.766L136.372 176.76C136.372 176.76 125.531 179.341 121.402 179.341C117.272 179.341 102.817 178.309 97.139 177.276C91.4602 176.244 80.6193 173.146 78.5542 173.146Z" fill="#415A6B"/>
<path d="M201.934 53.8965C201.934 53.8965 202.966 68.3512 205.031 74.0296C207.097 79.708 207.097 79.708 207.097 79.708L167.863 107.585L166.314 80.2244C166.314 80.2244 157.022 80.2244 152.892 68.3512C148.762 56.478 146.181 51.8319 147.214 45.6372C147.214 45.6372 147.214 43.5721 146.697 42.5398C146.181 41.5075 145.149 30.6666 148.246 22.9231C148.246 22.9231 148.762 15.1796 151.86 10.5335C154.957 5.88744 186.448 6.91974 193.675 10.5335C200.902 14.1473 202.966 46.6695 201.934 53.8965Z" fill="#FFE4C1"/>
<path d="M147.73 22.9226C147.73 22.9226 149.278 15.1791 152.376 16.2114C155.473 17.2437 159.087 17.2437 162.7 15.695C166.313 14.1463 184.898 13.63 184.898 21.3734C184.898 29.1169 190.061 42.5388 189.544 46.669H191.609C191.609 46.669 191.609 39.4419 193.675 36.3445C195.74 33.2471 201.418 40.9906 202.45 53.8965C202.45 53.8965 204.515 39.9583 205.548 35.8286C206.58 31.6989 209.162 13.1145 195.739 5.37105C181.801 -2.37244 159.603 -1.34013 151.343 5.88744C144.116 12.5981 147.73 22.9226 147.73 22.9226Z" fill="#415A6B"/>
<path d="M196.772 52.3483C199.623 52.3483 201.934 47.9569 201.934 42.5398C201.934 37.1227 199.623 32.7312 196.772 32.7312C193.92 32.7312 191.609 37.1227 191.609 42.5398C191.609 47.9569 193.92 52.3483 196.772 52.3483Z" fill="#FFE4C1"/>
<path d="M193.158 57.5104C185.414 70.4163 176.638 79.1921 165.798 80.2244L166.83 97.7765C190.06 82.2895 193.158 57.5104 193.158 57.5104Z" fill="#FFDBB5"/>
<path d="M171.992 91.0652L186.447 92.098L179.219 122.556L139.47 167.984L153.924 108.617L171.992 91.0652Z" fill="#CED6E0"/>
<path d="M165.281 99.3251L167.346 100.874C167.346 100.874 164.249 120.49 162.184 126.169C160.635 131.848 143.083 151.981 143.083 151.981C143.083 151.981 150.826 113.78 160.635 99.8415C162.184 97.7764 165.281 99.3251 165.281 99.3251Z" fill="#FF4A4A"/>
<path d="M166.83 91.0653C167.346 90.5489 169.927 90.5489 171.992 91.0653C174.057 92.0976 174.573 91.0653 174.573 91.0653L178.187 93.1304C178.187 93.1304 173.025 99.8415 167.863 100.357C167.863 100.357 163.217 99.3251 161.151 99.3251L166.83 91.0653Z" fill="#FF4A4A"/>
<path d="M171.992 91.0653L183.35 105.52L210.194 83.8382L205.031 71.4486C205.031 70.9323 203.999 70.9323 203.999 70.9323C201.934 72.4809 196.256 76.0947 190.061 78.6757C182.317 81.7731 171.992 91.0653 171.992 91.0653Z" fill="#F3F3F3"/>
<path d="M134.824 186.052C134.824 186.052 143.084 146.302 149.278 128.234C155.473 110.165 166.83 91.0652 166.83 91.0652C166.83 91.0652 160.636 96.2277 153.925 105.003C147.213 113.779 139.986 133.912 136.889 142.689C134.307 150.948 129.145 178.309 134.824 186.052Z" fill="#415A6B"/>
<path d="M211.742 84.3546L213.291 85.3869C213.291 85.3869 233.94 98.2929 241.167 111.715C247.879 125.137 248.911 135.462 247.362 142.689C245.813 149.916 230.327 193.796 228.778 218.575V248H121.402C121.402 248 122.434 210.831 128.113 190.698C133.791 170.565 142.568 142.172 158.571 129.783C174.573 117.393 211.742 84.3546 211.742 84.3546Z" fill="#344A5E"/>
<path d="M208.645 78.6757C208.645 78.6757 185.414 97.26 176.122 105.003C166.83 112.747 148.762 135.461 143.6 143.721C138.437 151.981 129.145 182.438 128.113 190.182C128.113 190.182 136.372 162.822 148.762 148.367C161.152 133.912 204.515 97.7764 204.515 97.7764L201.418 98.2928C205.031 94.1631 208.645 90.5493 212.775 88.4842C214.324 87.9678 214.324 85.9032 213.291 84.8704C211.226 82.2894 209.161 79.1921 208.645 78.6757Z" fill="#415A6B"/>
<path d="M119.853 172.114L41.386 176.244C40.8696 176.244 40.3537 176.244 39.8373 176.244L6.28235 166.951L88.3632 160.757L119.854 170.049C121.402 170.049 121.402 172.114 119.853 172.114Z" fill="#CED6E0"/>
<path d="M6.79834 166.951L40.3533 176.244C40.8697 176.244 41.3856 176.244 41.902 176.244L120.369 171.597V175.727L41.3856 180.89C40.8692 180.89 40.3533 180.89 39.8369 180.89L8.34655 170.049C7.31425 169.017 6.79834 167.984 6.79834 166.951Z" fill="#E8EAE9"/>
<path d="M144.632 161.273L143.6 158.176C143.6 158.176 141.019 158.176 138.437 156.627C135.856 155.078 131.726 147.851 130.178 145.786C128.629 143.205 125.015 138.043 123.983 135.462C122.951 133.396 121.918 129.783 121.918 129.783L122.434 124.105C122.434 124.105 114.174 121.524 117.272 136.494C117.272 136.494 119.853 141.14 119.853 142.689C119.853 144.238 119.336 146.303 118.304 146.303C117.272 146.819 108.495 148.368 106.431 149.4C104.366 150.433 99.2037 156.111 103.85 158.176C103.85 158.176 100.236 163.854 104.882 166.436C104.882 166.436 103.85 171.082 106.947 171.598C106.947 171.598 104.366 173.663 105.915 176.244C107.464 178.825 111.593 176.244 112.626 176.761C113.658 176.761 123.983 177.793 126.564 176.761C129.145 176.244 137.405 177.793 137.405 177.793L144.632 161.273Z" fill="#FFE4C1"/>
<path d="M193.158 149.916C193.158 149.916 191.609 131.848 199.353 117.909C207.096 103.971 216.388 99.3251 226.197 101.39C236.005 103.455 243.749 123.072 245.813 130.815C247.879 138.559 241.167 165.919 239.102 173.662C237.554 181.406 231.359 202.571 224.648 212.38C217.936 222.188 214.323 224.253 205.547 221.156C197.287 218.058 164.248 206.701 154.956 201.539C146.18 196.377 130.177 187.601 130.177 187.601C130.177 187.601 136.372 157.659 141.534 155.078C141.534 155.078 159.602 165.403 165.797 167.984C171.992 170.565 174.573 170.565 179.219 173.147C184.382 175.728 194.706 178.309 194.706 178.309C194.706 178.309 192.125 174.695 193.157 171.598C194.19 168.501 194.706 164.887 194.706 162.306C194.706 159.724 193.158 149.916 193.158 149.916Z" fill="#415A6B"/>
<path d="M122.434 130.299C118.82 129.783 122.951 124.621 122.951 124.621L122.434 130.299Z" fill="#E8EAE9"/>
</g>
<defs>
<clipPath id="clip0">
<rect width="248" height="248" fill="white"/>
</clipPath>
</defs>
</svg>
