<svg width="180" height="180" viewBox="0 0 180 180" fill="none" xmlns="http://www.w3.org/2000/svg">
<path d="M155.25 136.712H24.75L0 163.712H180L155.25 136.712Z" fill="#CED6E0"/>
<path d="M67.8751 155.837L77.2499 145.337H102.75L112.125 155.837H67.8751Z" fill="#ADB3BA"/>
<path d="M155.25 51.5869V137.087H24.75V51.5869C24.75 47.462 28.125 44.087 32.2499 44.087H148.125C151.875 44.087 155.25 47.462 155.25 51.5869Z" fill="#415A6B"/>
<path d="M145.875 53.4622H34.1251V127.337H145.875V53.4622Z" fill="#8AD7F8"/>
<path d="M180 163.712C180 170.087 174.75 175.337 168.375 175.337H11.6251C8.25012 175.337 5.625 174.212 3.375 171.962C1.50012 170.087 0 167.087 0 163.712H180Z" fill="#415A6B"/>
<path d="M115.875 44.087H113.25C113.25 27.5872 102.75 13.712 89.6249 13.712C76.5 13.712 65.9999 27.212 65.9999 44.087H63.3748C64.1246 26.087 75.7498 11.462 89.9996 11.462C104.25 11.462 115.875 26.087 115.875 44.087Z" fill="#ADB3BA"/>
<path d="M96.3749 123.212L101.25 93.2119H78.75L83.6251 123.212H96.3749Z" fill="#CED6E0"/>
<path d="M94.1249 104.462L97.4999 101.087L90 93.2119L82.5001 101.087L85.8751 104.462H94.1249Z" fill="#497285"/>
<path d="M99 127.337L94.1249 104.462H85.8751L81 127.337H99Z" fill="#497285"/>
<path d="M105.375 56.837H74.6251V93.2121H105.375V56.837Z" fill="#FFDBB5"/>
<path d="M105.375 72.5872L90 93.2119C90 93.2119 100.5 102.962 101.25 104.837L112.5 81.5872L105.375 72.5872Z" fill="#F3F3F3"/>
<path d="M74.6251 72.5872L90 93.587C90 93.587 79.4999 103.337 78.75 105.212L67.5 81.9623L74.6251 72.5872Z" fill="#F3F3F3"/>
<path d="M145.875 127.337L141.75 103.337C140.625 98.462 137.625 94.3372 133.125 92.4623L114.375 83.4623L100.125 127.337H145.875V127.337Z" fill="#E7343F"/>
<path d="M105 127.337L119.25 96.2122L112.875 92.0869L123.375 87.962L105.375 72.5872L95.625 127.337H105Z" fill="#FF4A4A"/>
<path d="M80.2501 127.337L66.0002 83.462L47.2504 92.462C42.7504 94.712 39.7505 98.4622 38.6255 103.337L34.5006 127.337H80.2501Z" fill="#E7343F"/>
<path d="M60.75 96.2122L74.6251 127.337H84.375L74.6251 72.5872L56.6251 87.962L67.1249 92.0869L60.75 96.2122Z" fill="#FF4A4A"/>
<path d="M90 78.5869C101.598 78.5869 111 64.1482 111 46.337C111 28.5259 101.598 14.0872 90 14.0872C78.4021 14.0872 69.0001 28.5259 69.0001 46.337C69.0001 64.1482 78.4021 78.5869 90 78.5869Z" fill="#FFE4C1"/>
<path d="M100.875 65.837L100.125 64.3369C110.25 59.087 113.25 49.7119 113.25 49.7119L114.75 50.087C114.75 50.4618 111.75 60.212 100.875 65.837Z" fill="#497285"/>
<path d="M103.125 63.5871C103.875 64.7121 103.5 66.2122 101.25 67.3372C98.6249 68.4622 97.4999 67.7124 96.75 66.5874C96.0001 65.4624 96.0001 63.9622 98.6249 62.4625C101.25 61.3371 102.375 62.087 103.125 63.5871Z" fill="#497285"/>
<path d="M68.625 47.0868H70.875C70.875 44.087 70.4999 39.587 70.4999 38.8367C70.4999 37.7117 73.8749 36.9618 73.8749 33.2117C73.8749 31.7116 73.8749 29.8367 74.25 27.9618C74.6251 26.087 76.5 24.5868 78.3749 24.962C84.375 25.7118 98.6249 23.837 104.25 26.087C108.375 27.5871 104.25 31.712 106.125 33.5868C108 35.4617 108.375 34.3367 108.375 35.8368C108.375 36.9618 108.75 46.7117 108.75 48.9617H109.875C110.625 46.3366 111.75 38.8367 113.625 32.0867C116.25 22.7116 114 15.9616 106.125 9.96184C98.2501 3.96207 87.3752 3.58695 80.2501 6.21172C73.5001 8.83684 70.875 11.8367 71.6252 16.7118C71.6252 16.7118 68.2502 16.3367 64.8752 22.3368C61.5002 28.7117 68.2502 41.4618 68.2502 42.962C68.2499 44.087 68.625 45.5871 68.625 47.0868Z" fill="#415A6B"/>
<path d="M117.75 44.8369V48.2119C117.75 48.9618 117 49.7121 116.25 49.7121C115.5 49.7121 114.75 50.4619 114.75 51.2122C114.374 54.2121 113.625 56.0873 112.124 56.0873C110.25 56.0873 108.749 52.3372 108.374 47.4624C107.999 42.5873 109.124 38.8375 110.999 38.8375C111.749 38.8375 112.874 39.9625 113.249 41.4626C113.625 42.5876 114.75 43.3375 115.875 43.3375C117 43.3372 117.75 44.0871 117.75 44.8369Z" fill="#44C868"/>
<path d="M114.75 52.3372C114.375 54.5872 113.625 56.0873 112.5 56.0873C110.625 56.0873 109.125 52.3372 108.75 47.4624C108.375 42.5876 109.5 38.8375 111.375 38.8375C112.125 38.8375 112.875 39.5874 113.625 41.0875C111 41.0872 112.5 52.7119 114.75 52.3372Z" fill="#4CE166"/>
<path d="M62.2501 44.8369V48.2119C62.2501 48.9618 63 49.7121 63.7502 49.7121C64.5001 49.7121 65.2504 50.4619 65.2504 51.2122C65.6255 54.2121 66.3754 56.0873 67.8755 56.0873C69.7504 56.0873 71.2505 52.3372 71.6256 47.4624C72.0007 42.5873 70.8757 38.8375 69.0005 38.8375C68.2506 38.8375 67.1256 39.9625 66.7505 41.4626C66.3754 42.5876 65.2504 43.3375 64.1254 43.3375C63 43.3372 62.2501 44.0871 62.2501 44.8369Z" fill="#44C868"/>
<path d="M65.25 52.3372C65.6251 54.5872 66.375 56.0873 67.5 56.0873C69.3749 56.0873 70.875 52.3372 71.2501 47.4624C71.6252 42.5876 70.5002 38.8375 68.625 38.8375C67.8751 38.8375 67.1249 39.5874 66.375 41.0875C69.0001 41.0872 67.5 52.7119 65.25 52.3372Z" fill="#4CE166"/>
</svg>
